<svg width="172" height="259" viewBox="0 0 172 259" fill="none" xmlns="http://www.w3.org/2000/svg">
<path d="M107.56 127.035L106.5 140.81M109.416 108.758L108.356 116.97M110.478 93.6596L109.419 103.725M94.0433 86.2446C98.8143 86.1572 108.57 86.5617 109.419 88.8921M98.5487 87.8337L97.7519 98.165M101.995 88.8921L100.936 103.725M96.9584 105.58C95.9867 116.264 94.0433 137.842 94.0433 138.69M99.6079 112.733C98.0175 121.714 95.0473 140.293 95.896 142.759M86.0883 101.343C84.9384 113.743 82.8007 138.995 83.4388 140.81M69.9192 91.8083C69.6536 107.435 69.2843 138.69 69.9192 138.69M65.6793 93.6596C66.5636 107.169 68.0665 134.347 67.0041 134.981M57.1964 113.791C58.2555 123.207 60.2702 142.112 59.8459 142.4M57.1964 111.409L54.5469 95.5174M54.5469 90.4813V87.8337" stroke="black" stroke-width="1.5" stroke-linecap="round"/>
<path d="M51.3664 97.9709C53.0442 111.833 56.2961 140.247 55.8718 143.002M50.0384 92.4104C49.4197 89.8503 49.2416 84.5714 53.4847 83.9338C58.7869 83.1376 83.1734 80.49 87.4132 81.0208M94.3091 81.0208C102.439 80.5807 118.485 81.6552 117.636 89.4975C116.788 97.3366 114.809 116.073 113.924 124.463M112.6 134.791L111.803 141.413" stroke="black" stroke-width="1.5" stroke-linecap="round"/>
<path d="M119.165 73.2788C100.194 76.4345 70.2531 69.78 57.6534 66.0579C47.9655 21.8136 55.2663 -4.40288 62.3078 1.94086C70.0167 8.88337 107.029 10.3625 108.422 13.9066C109.915 17.7193 119.146 56.7527 119.165 73.2788Z" stroke="black" stroke-width="1.5"/>
<path d="M20.8818 161.725L17.4355 165.7M21.6753 165.697L16.9043 171.26M21.6753 172.319L18.7602 176.028M21.6753 176.028L17.4355 180.53M21.6753 185.563L16.9043 191.92M20.8818 192.45L16.9043 198.276M20.8818 198.276L16.9043 203.84M20.6162 203.575L17.4355 207.549M17.9667 211.786L21.6786 207.549M17.4355 223.441L21.6753 217.615" stroke="black" stroke-width="0.2" stroke-linecap="round" stroke-linejoin="round"/>
<path d="M18.2314 230.063L21.6777 225.826M18.7594 236.154L22.4713 231.387" stroke="black" stroke-width="0.2" stroke-linecap="round" stroke-linejoin="round"/>
<path d="M154.215 159.075L150.769 163.049M155.012 163.049L150.241 168.613M155.012 169.671L152.096 173.38M155.012 173.38L150.772 177.883M155.012 182.916L150.241 189.272M154.215 189.803L150.237 195.629M154.215 195.629L150.237 201.193M153.949 200.927L150.769 204.902M151.3 209.138L155.012 204.902M150.769 220.793L155.008 214.968" stroke="black" stroke-width="0.2" stroke-linecap="round" stroke-linejoin="round"/>
<path d="M151.565 227.415L155.012 223.179M152.093 233.507L155.805 228.739" stroke="black" stroke-width="0.2" stroke-linecap="round" stroke-linejoin="round"/>
<path d="M9.4834 155.631V257.875H15.8448V155.631M19.2911 247.282H22.7374V156.955" stroke="black" stroke-width="1.5" stroke-linecap="round"/>
<path d="M162.698 155.631V257.875H156.337V155.631M152.891 247.282H149.444V156.955" stroke="black" stroke-width="1.5" stroke-linecap="round"/>
<path d="M167.469 152.718H1V142.917H169.59M169.59 142.917H171.18M169.59 142.917V152.718M56.6655 155.365C57.3716 161.635 58.6283 174.277 57.9902 174.701M61.4365 155.365L62.7613 176.821M105.176 155.365C104.204 159.515 102.261 169.509 102.261 176.29M106.501 176.293C106.854 170.202 107.826 157.485 108.888 155.369M78.4024 186.625H46.8578V193.512L77.8712 194.043M85.5606 186.625H112.334C115.939 189.379 113.837 192.716 112.334 194.043H85.5606M64.0893 161.725C67.4481 161.725 74.6938 161.725 76.8121 161.725M81.3175 161.725C85.6481 161.373 95.6857 160.984 101.199 162.256" stroke="black" stroke-width="1.5" stroke-linecap="round"/>
<path d="M48.1826 189.528C48.6231 186.35 55.2339 179.993 78.1369 179.993M83.9703 179.993C92.8938 178.756 110.796 178.935 111.01 189.528" stroke="black" stroke-width="1.5"/>
<path d="M73.1002 53.6973C74.2501 53.8753 76.8639 53.9627 78.1369 52.9011M88.4758 28.4874C89.9787 29.2836 92.8776 31.7175 92.4532 35.1095M78.9337 25.0469C77.0777 24.9595 73.2071 25.1537 72.5723 26.6361" stroke="black" stroke-linecap="round"/>
<path d="M69.6577 49.2246L61.7059 57.3614C59.8435 59.2225 53.4983 65.5338 51.6326 67.3981C50.9978 68.0325 54.5477 70.4891 56.4037 71.6348L58.0653 69.7803L60.9124 66.6019C62.9465 64.66 72.7866 54.3643 73.6352 53.0923C74.1405 52.3317 73.2238 51.3705 72.0448 50.5581C71.2448 50.0111 70.3314 49.5321 69.6577 49.2246Z" fill="black"/>
<path d="M66.4737 50.9722C67.0438 50.2504 68.1289 49.4671 69.6544 49.2244M92.1882 54.6813C86.8859 54.4159 85.2956 59.1834 77.875 52.5613C74.487 49.5383 71.6853 48.9007 69.6577 49.2244M69.6577 49.2244L61.7059 57.3612C59.8435 59.2223 53.4983 65.5336 51.6326 67.3979C50.9978 68.0323 54.5477 70.4889 56.4037 71.6346L58.0653 69.7801M69.6577 49.2244C70.3346 49.5286 71.248 50.0109 72.0416 50.5579C73.2206 51.3703 74.1405 52.3315 73.6319 53.0921C72.7833 54.3641 62.94 64.6597 60.9091 66.6017L58.0621 69.7801C58.3309 68.2945 56.3583 67.5727 55.0757 67.3947M66.4737 56.565L72.0383 50.5579M57.1973 66.6017L59.8468 63.7179" stroke="black" stroke-linecap="round"/>
<path d="M49.7725 74.282L51.6284 67.6599C53.3969 68.8089 56.7719 71.2105 56.1339 71.6345C55.499 72.0585 51.6284 73.5764 49.7725 74.282Z" fill="black" stroke="black" stroke-width="3.2736"/>
<path d="M83.4389 205.649C83.8826 198.144 84.1288 181.757 81.5829 176.248C81.0226 175.031 80.527 173.678 80.093 172.274V204.588L64.3514 253.59C70.2723 253.943 81.5829 255.127 79.4614 257.034C76.8119 259.419 60.6396 257.034 64.3514 253.59L80.093 204.588V172.277C80.527 173.681 81.0193 175.031 81.5829 176.251C84.1288 181.757 83.8794 198.147 83.4389 205.649C87.2382 220.305 94.6782 250.415 94.0434 253.593C103.585 255.182 87.1508 259.157 84.5013 257.568C82.3797 256.296 89.9784 254.389 94.0434 253.593C94.6782 250.415 87.2382 220.308 83.4389 205.649Z" fill="black"/>
<path d="M122.67 144.992C117.368 143.296 97.8561 101.903 88.761 81.4221L25.3867 101.023C34.4883 86.6298 53.2745 57.795 55.6066 57.5813C56.6658 55.9922 69.6542 58.1121 67.0047 66.851C64.6175 71.3531 52.4259 60.7597 55.6066 57.5813C53.2745 57.7917 34.4883 86.6298 25.3867 101.023L88.761 81.4221C97.8561 101.903 117.368 143.296 122.67 144.992C125.938 143.316 133.909 140.542 139.636 142.872C146.794 145.785 120.814 147.905 122.67 144.992Z" fill="black"/>
<path d="M77.6056 159.033C77.8129 161.716 78.5643 167.325 80.0932 172.277V204.591L64.3516 253.593M94.0403 253.593C94.6751 250.415 87.2384 220.305 83.4358 205.649C83.8795 198.144 84.1257 181.757 81.5799 176.248C81.0195 175.031 80.5239 173.678 80.0899 172.274M94.0403 253.593C89.9754 254.389 82.3766 256.296 84.4982 257.568C87.1509 259.157 103.586 255.182 94.0403 253.593ZM64.3516 253.593C70.2725 253.946 81.5831 255.131 79.4615 257.037C76.812 259.422 60.6429 257.037 64.3516 253.593ZM77.6056 141.283C79.2348 125.948 83.3062 97.5825 88.7607 81.4189M92.1876 73.253C92.1876 73.253 90.4061 76.5511 88.764 81.4189M122.673 144.992C117.371 143.3 97.8591 101.907 88.764 81.4222L25.3896 101.023C34.4912 86.6298 53.2775 57.795 55.6095 57.5813M122.67 144.992C125.938 143.316 133.909 140.542 139.636 142.872C146.794 145.785 120.814 147.905 122.67 144.992ZM55.6063 57.5813C56.6654 55.9922 69.6539 58.1121 67.0043 66.851C64.6172 71.3563 52.4256 60.7597 55.6063 57.5813Z" stroke="black" stroke-width="1.5" stroke-linecap="round"/>
<path d="M54.1913 202.782L52.6593 204.727M54.5476 204.724L52.4261 207.446M54.5476 207.964L53.252 209.779M54.5476 209.779L52.6625 211.983M54.5476 214.443L52.4261 217.554M54.1913 217.816L52.4229 220.667M54.1913 220.667L52.4229 223.389M54.0747 223.256L52.6625 225.202M52.8957 227.276L54.5444 225.202M52.6625 232.976L54.5476 230.125" stroke="black" stroke-width="0.2" stroke-linecap="round" stroke-linejoin="round"/>
<path d="M48.1826 195.363V245.162H51.4896V195.363M53.284 240.003H55.0752V196.011" stroke="black" stroke-width="1.5" stroke-linecap="round"/>
<path d="M105.351 201.72L107.265 203.665M104.91 203.665L107.56 206.387M104.91 206.905L106.53 208.721M104.91 208.721L107.265 210.925M104.91 213.385L107.56 216.495M105.351 216.754L107.56 219.606M105.351 219.606L107.56 222.328M105.5 222.198L107.268 224.143M106.973 226.215L104.91 224.14M107.265 231.918L104.91 229.066" stroke="black" stroke-width="0.2" stroke-linecap="round" stroke-linejoin="round"/>
<path d="M111.272 194.305V244.104H107.965V194.305M106.174 238.941H104.383V194.949" stroke="black" stroke-width="1.5" stroke-linecap="round"/>
<path d="M88.5136 37.3832C89.2616 35.3194 88.9749 33.3232 87.8733 32.9245C86.7716 32.5258 85.2722 33.8757 84.5243 35.9395C83.7763 38.0033 84.063 39.9996 85.1646 40.3982C86.2662 40.7969 87.7656 39.447 88.5136 37.3832Z" fill="black"/>
<path d="M76.8515 34.2015C77.5995 32.1376 77.3128 30.1414 76.2112 29.7427C75.1095 29.3441 73.6101 30.6939 72.8621 32.7578C72.1142 34.8216 72.4009 36.8178 73.5025 37.2165C74.6041 37.6151 76.1035 36.2653 76.8515 34.2015Z" fill="black"/>
</svg>
