<?xml version="1.0" encoding="utf-8"?>
<!-- Generator: Adobe Illustrator 25.0.0, SVG Export Plug-In . SVG Version: 6.00 Build 0)  -->
<svg version="1.1" id="Layer_1" xmlns="http://www.w3.org/2000/svg" xmlns:xlink="http://www.w3.org/1999/xlink" x="0px" y="0px"
	 viewBox="0 0 3358 852" style="enable-background:new 0 0 3358 852;" xml:space="preserve">
<style type="text/css">
	.st0{fill:#FFFFFF;}
</style>
<g>
	<g>
		<path class="st0" d="M395.3,508.84c1.12,20.11-2.31,38.9-10.4,56.31c-8.09,17.42-20.53,32.79-37.3,46.33
			c-16.76,13.55-37.76,25.08-62.89,34.81c-25.13,9.73-53.49,17.43-84.92,23.24c-3.58,38.78-10.69,77.3-23.37,116.84
			c17.09-2.62,34.12-5.25,51.08-7.87c-0.72,2.5-1.46,5-2.22,7.5c-73.87,11.38-148.97,22.78-225.61,34.33
			c1.18-2.55,2.33-5.09,3.45-7.62c15.63-2.36,31.19-4.71,46.69-7.06c42.13-102.11,39.37-196.01,37.67-289.78
			c-15.37-3.42-30.66-6.5-45.86-9.19c55.62-16.67,110.85-34.85,165.72-54.69c30.04-10.87,56.6-18.23,79.87-21.03
			c23.26-2.82,42.62-1.52,58.18,4.09c15.54,5.58,27.52,15.15,35.88,28.2C389.61,476.31,394.35,491.72,395.3,508.84z M205.04,460.97
			c-1.86,0.65-3.72,1.3-5.58,1.94c2.1,69.69,6.26,135.05,0.97,199.26c23.49-4.5,42.99-17.01,57.32-38.24
			c14.33-21.24,20.99-48.47,19.72-82.43c-1.23-32.3-8.84-56.63-21.94-70.67C242.37,456.7,225.66,453.71,205.04,460.97z"/>
		<path class="st0" d="M611.85,743.17c-28.51,3.38-54.81,2.02-78.72-4.05c-23.93-6.07-43.63-16.27-59.56-30.69
			c-15.95-14.44-27.56-32.45-35.57-54.52c-8.01-22.1-11.55-46.73-10.87-75.04c0.79-32.94,7.47-67.6,20.51-106.19
			c13.02-38.58,32.96-76.51,60.02-113.66c27.05-37.1,59.03-66.58,96.3-82.87c26.38-11.57,51.46-14.24,75.45-6.97
			c23.99,7.21,45.33,23.18,64.05,46.59c18.69,23.38,33.86,53.09,45.2,86.7c11.33,33.62,17.87,68.94,19.16,104.38
			c1.48,41.24-4.58,78.46-18.75,112.7c-14.18,34.22-37.07,61.29-68.37,83.54C689.39,725.27,652.59,738.3,611.85,743.17z
			 M689.09,706.87c24.09-3.13,37.69-18.43,39.19-47.94c0.99-19.85-2.04-42.48-9.19-68.69c-7.15-26.21-17.31-53.19-30.2-80.83
			c-12.9-27.62-28.35-55.27-46.07-82.28c-17.73-27.01-36.16-48.88-55.13-64.16c-18.99-15.33-35.85-20.03-50.81-14.4
			c-9.97,3.72-17.88,12.34-23.73,25.25c-5.86,12.91-8.52,28.47-7.99,46.37c0.75,25.51,5.16,52.03,13.04,79.52
			c7.87,27.49,18.99,55.19,33.01,83.2c14.02,28,30.26,52.16,49.08,73.38c18.8,21.18,35.29,35.01,50.11,42.09
			C665.18,705.45,678.09,708.27,689.09,706.87z"/>
		<path class="st0" d="M1213.18,668c8.29-0.7,16.57-1.4,24.86-2.11c-0.04,2.92-0.09,5.83-0.14,8.71
			c-49.27,4.1-98.68,8.16-148.22,12.17c-29.98-55.2-61.46-116.46-94.45-189.92c0.68,74.3-0.53,134.87-4.7,189.6
			c14.8-1.2,29.59-2.4,44.37-3.61c-0.18,2.81-0.37,5.61-0.56,8.39c-67.08,5.38-134.43,10.66-202.07,15.86
			c0.35-2.69,0.69-5.39,1.02-8.1c14.02-1.1,28.03-2.2,42.03-3.31c12.14-110.89,8.88-243.02,3.31-460.64
			c-15.22-13.57-30.39-27.2-45.51-40.83c62.27-21.48,124.58-42.83,186.97-63.81c49.31-16.79,87.91-10.83,115.78,16.7
			c27.85,27.22,42.98,75.84,44.95,135.78c3.18,96.4-22.73,149.54-77.12,180.79C1141.29,544.04,1177.67,609.86,1213.18,668z
			 M1002.73,154.8c-5.3,1.73-10.6,3.46-15.89,5.19c3.88,133.28,7.22,237.33,8.23,323.23c26.29-5.93,45.19-18.94,56.54-40.72
			c11.35-22.05,16.29-61.86,14.19-131.46c-1.48-48.94-7.77-90.91-18.55-120.33C1036.45,161.13,1021.61,148.5,1002.73,154.8z"/>
		<path class="st0" d="M1605.27,12.63c1.27,132.94,2.45,241.24,3.47,331.87c-0.17,0.01-0.33,0.02-0.5,0.03
			c-18.97-78.63-39.19-152.04-60.59-204.92c-21.4-53.21-43.99-85.89-67.66-90.55c3.46,311.3,5.5,481.71,3.56,610.31
			c15.45-0.44,30.9-0.87,46.34-1.31c-0.02,3.01-0.04,5.99-0.06,8.95c-68.75,1.88-137.58,3.81-206.51,5.78
			c0.15-2.91,0.29-5.85,0.42-8.8c15.48-0.46,30.96-0.91,46.43-1.36c4.74-127.4,3.13-294.84-0.49-599.41
			c-46.76,19.63-86.08,152.97-121.54,307.07c-0.17,0.01-0.33,0.03-0.5,0.04c-0.27-85.11-1.38-186.27-2.85-309.95
			C1364.59,39.42,1484.86,23.24,1605.27,12.63z"/>
		<path class="st0" d="M1946.45,41.34c-1.14,105.02-2.1,194.16-2.73,271.13c-0.17-0.01-0.33-0.03-0.5-0.04
			c-25.78-79.44-49.42-149.35-71.41-193.19c-21.97-44.13-46.34-69.84-73.12-72.09c-0.84-0.07-1.67-0.15-2.51-0.22
			c-1.4,147.7-2.61,263.75-3.5,358.67c6.71-0.85,15.39-4.95,26.01-12.46c10.63-7.52,21.79-19.68,33.5-37.26
			c11.71-17.58,20.66-36.28,26.87-56.28c0.17,0.01,0.33,0.02,0.5,0.04c-0.77,84.77-1.25,155.04-1.32,215.53
			c-0.17-0.01-0.34-0.01-0.51-0.02c-3.7-9.38-9.82-20.68-18.34-34.22c-8.52-13.55-19.2-26.63-32.03-39.11
			c-12.84-12.49-24.43-20.12-34.81-22.31c-0.91,99.73-1.43,175.67-1.41,240.83c19.74,0.5,39.48,1,59.23,1.51
			c0.03,2.99,0.07,5.95,0.11,8.89c-71.39-1.8-142.7-3.54-213.94-5.22c0.09-2.97,0.17-5.97,0.26-8.99
			c13.71,0.33,27.42,0.66,41.14,0.99c2.54-122.4,4.89-283.22,7.32-567.75c-14.69-24.51-29.4-49.87-44.12-76.1
			C1742.99,18.94,1844.83,28.31,1946.45,41.34z"/>
		<path class="st0" d="M2174.28,698.87c-27.5-1.96-53.8-8.71-78.57-20.75c-24.78-12.08-46.09-28.4-63.76-50.25
			c-17.68-21.89-31.07-48.36-40.14-81.69c-9.09-33.35-12.91-71.27-11.6-115.76c1.53-51.7,10.07-107.24,25.43-165.58
			c15.37-58.32,37.73-110.5,66.88-149.42c29.15-39.19,62.53-54.5,100.06-42.99c26.57,7.94,51.18,28.2,73.93,58.18
			c22.75,29.96,42.21,66.63,58.53,107.23c16.31,40.62,28.69,83.32,37.32,126.4c8.63,43.09,12.75,83.79,12.5,122.41
			c-0.29,44.87-6.65,82.44-19.36,115.62c-12.71,33.1-32.57,57.09-60.39,74.74C2247.32,694.56,2213.64,701.6,2174.28,698.87z
			 M2244.17,674.43c23.62,1.6,34.36-12.02,33.23-44.36c-0.72-21.85-4.82-47.91-12.01-80.35c-7.19-32.47-16.37-67.81-27.58-107.16
			c-11.23-39.34-24.36-81.9-39.52-128.3c-15.16-46.39-31.22-89.92-48.4-127.06c-17.18-37.24-33.19-59.76-48.17-63.56
			c-9.98-2.64-18.33,4.66-25.03,21.28c-6.7,16.57-10.52,40.66-11.41,70.41c-1.27,42.4,0.94,87.93,6.82,134.05
			c5.89,46.13,15.3,91.54,28.56,135.03c13.26,43.49,29.86,79.3,49.87,110.24c20.01,30.82,38.21,50.35,53.89,61.79
			C2220.09,667.77,2233.43,673.6,2244.17,674.43z"/>
		<path class="st0" d="M2703.94,582.89c0.17,0.03,0.34,0.05,0.52,0.08c1.19,57.86,5.23,108.58,14,157.6
			c-111.06-11.51-220.84-23.32-329.51-35.56c-0.15-2.71-0.3-5.44-0.44-8.18c14.01,1.61,28.04,3.2,42.08,4.79
			c-7.12-110.24-0.07-241.57,9.87-458.41c-13.92-23.38-27.77-47.95-41.56-73.79c65.69,26.91,131.36,53.42,197.13,79.19
			c-15.35,11.27-30.76,22.61-46.21,33.98c-8.38,199.92-14.15,324.15-2.92,431.99c1.42,0.16,2.83,0.31,4.25,0.46
			c32.97,3.55,62.22-5.11,88.06-26.61C2665.12,666.73,2685.81,633.4,2703.94,582.89z"/>
		<path class="st0" d="M2747.5,744.92c-0.4-2.56-0.79-5.13-1.17-7.69c14.42,1.91,28.86,3.81,43.33,5.71
			c-17.39-103.61-11.21-214.03-3.56-375.56c-14.2-18.87-28.31-38.76-42.34-59.78c65.84,27.96,131.93,54.33,198.38,78.98
			c-15.19,6.4-30.47,13.08-45.81,19.98c-5.39,144.52-9.83,249.34,13.42,351.89c14.64,1.87,29.32,3.73,44.03,5.59
			c0.62,2.52,1.27,5.05,1.93,7.58C2885.57,762.8,2816.2,753.93,2747.5,744.92z"/>
		<path class="st0" d="M3206.49,816.75c-30.61-4.49-61.29-13.28-90.99-26.22c-29.71-12.96-56.05-28.95-78.34-48.12
			c-22.3-19.18-39.65-40.73-51.83-65.18c-12.19-24.45-18-50.09-17.91-77.26c0.12-31.55,8.4-62.01,23.67-89.97
			c15.3-27.97,37.71-48.49,66.74-59.38c29.05-11.03,62.29-8.38,100.48,5.06c27.03,9.46,52.46,22.81,76.39,38.88
			c23.94,16.11,44.81,33.56,62.72,52.63c17.93,19.08,32.01,38.99,42.79,60.66c10.8,21.66,17.44,43.73,20.7,66.89
			c3.77,26.9,2.46,52.46-4.5,76.59c-6.96,24.13-21.58,42.93-46.59,55.75C3284.95,819.9,3250.38,823.19,3206.49,816.75z
			 M3275.29,801.78c26.41,3.87,33.29-7.78,24.56-34.06c-5.7-17.6-14.9-37.82-26.58-60.67c-11.69-22.86-24.26-45.78-38.17-69.3
			c-13.91-23.53-28.99-47.18-45.76-71.81c-16.77-24.62-33.95-46.9-52.05-66.73c-18.1-19.81-34.62-33.15-49.84-38.24
			c-10.14-3.42-18.49-2.11-25.1,4.08c-6.61,6.17-10.27,16.7-10.91,31.04c-0.89,20.44,1.8,44.03,8.74,69.88
			c6.96,25.87,18,53.25,34.39,82.03c16.4,28.8,37.35,55.31,63.16,80.34c25.82,25,49.91,43.06,69.62,54.14
			C3247.09,793.57,3263.38,800.04,3275.29,801.78z"/>
	</g>
</g>
</svg>
