<svg width="229" height="266" viewBox="0 0 229 266" fill="none" xmlns="http://www.w3.org/2000/svg">
<path opacity="0.36" d="M42.7981 55.8726H17.5586V81.112H42.7981V55.8726Z" stroke="black" stroke-miterlimit="10"/>
<path d="M145.716 124.187C145.716 124.187 140.374 118.055 140.227 118.06C140.08 118.065 136.83 117.29 136.682 117.29C136.535 117.29 132.602 117.677 132.602 117.677L129.446 119.19L127.212 122.523C127.212 122.523 127.939 124.767 127.939 125.056C127.939 125.346 129.927 130.059 130.221 130.152C130.516 130.255 145.716 124.187 145.716 124.187Z" fill="white"/>
<path d="M227.171 69.3244C227.171 69.3244 179.638 68.151 173.255 63.0452C172.966 62.8145 172.76 62.5788 172.652 62.3284C172.445 61.8768 172.215 61.1649 171.959 60.237C171.95 58.013 171.935 55.794 171.91 53.57C171.881 49.8339 170.933 46.7262 169.092 44.4433C168.965 43.4663 168.837 42.4697 168.714 41.4584C166.834 25.9003 166.156 6.9548 171.169 3.22362C179.417 -2.9181 167.973 4.64734 217.573 13.9311C217.573 13.9311 232.218 65.4754 227.171 69.3244Z" stroke="black" stroke-width="1.5" stroke-miterlimit="10"/>
<path d="M202.104 114.069C201.888 113.284 201.653 112.503 201.378 111.737C197.146 99.7139 192.899 87.6956 188.677 75.6674C188.211 74.3419 187.759 72.982 187.548 71.6024C187.224 69.4914 187.842 68.3573 189.374 68.0578C188.186 67.832 187.199 67.5423 187.082 67.5079C187.366 67.6405 187.661 67.7731 187.955 67.9154C186.62 69.4325 185.653 70.9789 184.293 71.9854C181.259 74.229 178.019 76.1928 174.882 78.3038C174.248 78.7261 173.718 79.3005 173.144 79.8061C173.296 79.978 173.443 80.1547 173.595 80.3265C177.719 77.6705 181.833 75.0096 186.306 72.1228C183.149 90.1307 181.553 107.888 183.129 125.827C183.591 125.037 183.773 124.207 183.728 123.387C182.972 108.59 184.033 93.8913 186.154 79.2514C186.321 78.078 186.645 76.9243 186.895 75.7607C189.31 81.8533 191.269 87.9116 193.366 93.9208C195.761 100.774 198.265 107.589 200.769 114.403C201.309 115.871 201.029 116.848 199.733 117.81C193.002 122.813 185.618 126.682 177.631 129.004C170.542 131.071 163.187 132.278 155.907 133.638C153.211 134.139 150.398 133.992 147.457 134.144C147.85 132.21 148.125 130.855 148.498 129.018C152.406 129.018 156.26 129.185 160.099 128.984C165.853 128.675 169.687 125.572 171.155 120.01C171.715 117.889 171.897 115.621 171.897 113.416C171.955 96.0367 171.96 78.6622 171.921 61.2828C171.916 60.8606 171.916 60.4384 171.916 60.0162C171.901 55.7155 171.764 51.4099 171.44 47.1289C171.332 45.7346 170.654 44.2666 169.874 43.0737C169.147 41.969 168.313 41.051 167.38 40.3096C164.994 38.3949 162.014 37.5751 158.818 37.4572C152.887 37.2314 146.952 37.3738 141.016 37.3541C135.601 37.3394 130.186 37.3099 124.771 37.3149C123.553 37.3149 122.65 37.1528 123.219 35.6015H125.645C124.717 34.1924 124 33.1615 123.337 32.0912C122.679 31.0161 122.041 29.9261 121.452 28.8166C119.798 25.6647 117.51 24.8498 114.849 27.167C112.154 29.5138 109.763 32.3072 107.656 35.2087C106.567 36.711 105.678 37.3394 103.817 37.3345C75.1854 37.2658 46.5584 37.2854 17.9265 37.2805C13.6455 37.2805 10.0616 38.9301 8.1862 42.7496C6.82628 45.5382 5.68728 48.7686 5.65782 51.8125C5.44672 74.1406 5.49582 96.4688 5.57929 118.792C5.60383 125.14 10.1843 129.382 16.5568 129.387C52.7541 129.431 88.9515 129.49 125.149 129.47C126.96 129.47 128.08 129.927 129.155 131.453C132.228 135.818 136.617 137.708 141.885 137.183C147.187 136.648 152.475 135.921 157.743 135.14C173.276 132.838 187.867 128.14 200.533 118.419C202.188 117.162 202.595 115.876 202.104 114.069ZM106.787 42.7202C106.994 36.4999 110.352 32.0863 115.08 28.576C117.073 27.0934 118.344 27.5942 119.577 29.7838C123.617 36.9859 120.411 45.7247 112.684 48.582C108.874 49.991 106.984 48.7539 106.792 44.7232C106.763 44.0555 106.787 43.3878 106.787 42.7202ZM126.685 124.516C127.044 125.356 126.911 126.407 127.044 127.796H123.936C88.4851 127.87 53.034 127.963 17.578 127.963C14.3034 127.968 11.6179 126.289 9.56084 123.638C10.0567 123.839 10.5476 124.04 10.8815 124.178C9.96832 122.273 9.01098 120.275 8.04382 118.262C7.95545 118.321 7.67561 118.497 7.33686 118.718C7.30249 118.37 7.25339 118.085 7.25339 117.805C7.24848 95.9238 7.17485 74.0424 7.32705 52.161C7.35159 49.2939 8.2402 46.3139 9.28591 43.599C10.3611 40.8251 12.6734 39.1461 15.8744 39.1461C45.39 39.1215 74.9105 39.1019 104.431 39.0823C104.721 39.0823 105.005 39.151 105.378 39.2001C105.275 41.4437 105.074 43.6284 105.094 45.8082C105.128 49.8094 107.602 51.7192 111.422 50.4967C116.268 48.9453 120.274 46.2304 121.894 41.0755C122.414 39.4308 123.254 38.9792 124.928 38.989C135.753 39.0626 146.583 38.9399 157.414 39.043C162.122 39.0872 165.573 40.5846 167.743 43.216C169.584 45.4351 170.532 48.4495 170.561 52.0825C170.586 54.2426 170.6 56.3979 170.61 58.558C170.723 77.0176 170.546 95.4771 170.434 113.941C170.419 116.131 170.002 118.375 169.422 120.501C168.303 124.615 165.156 127.202 160.934 127.492C157.095 127.752 153.231 127.806 149.372 127.781C148.778 127.776 147.904 126.991 147.639 126.362C146.132 122.715 144.207 119.445 140.55 117.565C136.745 115.606 131.207 116.401 128.08 119.381C126.622 120.785 125.763 122.356 126.685 124.516ZM141.738 135.71C134.708 136.176 128.153 130.373 127.982 123.191C127.613 121.144 128.87 119.833 130.932 118.954C135.365 117.059 139.828 118.213 143.235 122.307C145.17 124.629 146.353 127.315 146.5 130.378C146.677 133.702 145.071 135.489 141.738 135.71Z" fill="black"/>
<path d="M219.911 261.509C219.351 260.994 218.468 260.694 217.687 260.567C214.27 259.997 210.843 259.335 207.402 259.104C205.561 258.976 204.324 258.785 203.906 256.733C203.582 255.147 202.797 253.654 202.488 252.064C200.205 240.286 197.799 228.523 195.801 216.696C193.096 200.691 190.602 184.647 188.245 168.588C187.141 161.052 186.605 153.433 185.766 145.858C185.177 140.555 184.509 135.263 183.876 129.966C183.841 129.676 183.733 129.396 183.66 129.116C183.424 129.249 183.188 129.382 182.953 129.524C182.928 130.128 182.82 130.746 182.879 131.35C183.252 135.185 183.434 139.058 184.126 142.838C184.681 145.867 184.244 148.455 182.786 151.135C174.46 166.433 166.202 181.775 157.983 197.132C157.09 198.811 156.201 200.662 155.995 202.508C154.778 213.186 153.761 223.888 152.686 234.581C152.234 239.137 151.802 243.693 151.365 248.249C149.544 248.249 147.85 248.131 146.171 248.274C143.231 248.519 140.471 249.422 138.375 251.607C136.814 253.242 137.369 255.22 139.377 255.417C142.818 255.751 146.206 255.49 149.294 253.703C151.257 252.569 152.524 250.93 152.72 248.593C153.658 237.443 154.674 226.294 155.504 215.135C156.172 206.16 158.273 197.839 162.952 189.881C170.532 176.993 177.233 163.591 184.578 149.888C185.064 154.307 185.358 158.21 185.938 162.064C189.124 183.101 192.143 204.162 195.712 225.13C197.608 236.285 200.499 247.267 202.978 258.318C203.199 259.295 204.044 260.228 204 261.151C203.911 262.923 204.913 263.773 206.184 264.421C207.363 265.015 208.644 265.673 209.925 265.771C213.004 266.006 216.121 266.08 219.199 265.898C220.068 265.844 221.369 264.794 221.546 263.999C221.693 263.296 220.648 262.192 219.911 261.509ZM149.613 252.29C146.638 254.199 143.314 254.823 139.853 254.224C138.297 253.954 138.115 252.756 139.553 251.71C142.907 249.27 146.657 248.74 151.253 249.815C150.55 250.92 150.256 251.877 149.613 252.29ZM206.042 262.585C205.639 262.226 205.286 261.642 205.242 261.131C205.217 260.861 205.885 260.272 206.263 260.248C211.069 259.963 215.728 260.503 219.946 263.085C220.22 263.252 220.368 263.635 220.682 264.062C216.74 265.997 208.919 265.147 206.042 262.585Z" fill="black"/>
<path d="M207.239 48.8913C202.491 53.0643 196.934 54.4635 190.812 53.9038C186.967 53.5503 183.403 52.3966 180.536 49.7111C179.657 48.8863 179.122 47.6934 178.749 46.3433C182.539 50.3739 187.041 52.3033 192.456 52.5783C197.807 52.8483 202.575 51.1987 207.239 48.8913Z" fill="black"/>
<path d="M202.605 33.7506C202.595 36.7208 200.445 39.6125 198.702 39.3375C198.029 39.2295 197.057 38.228 196.993 37.5603C196.758 35.1498 199.06 32.3563 200.98 32.6116C201.672 32.7049 202.271 33.5052 202.605 33.7506Z" fill="black"/>
<path d="M192.196 30.152C192.245 33.1664 190.35 35.8126 188.583 35.5966C187.964 35.523 187.056 34.5067 186.987 33.8488C186.747 31.4972 188.485 29.0818 190.257 29.1898C191.023 29.2389 191.749 29.9164 192.196 30.152Z" fill="black"/>
<path d="M6.11328 40.0345C6.58459 37.3687 10.085 34.8796 13.1731 34.7913C11.1995 36.2543 8.53364 38.2377 6.11328 40.0345Z" fill="black"/>
<path d="M6.05938 130.501C2.97134 130.157 1.05176 127.913 1.57216 124.992C3.06463 126.828 4.69947 128.831 6.05938 130.501Z" fill="black"/>
<path d="M6.04518 134.178C1.53831 133.535 -0.135815 131.802 0.566236 128.08C1.47448 131.281 3.21243 133.245 6.04518 134.178Z" fill="black"/>
<path d="M203.68 28.1538C206.09 27.0148 208.476 28.576 208.383 31.2075C206.886 30.2354 205.319 29.2191 203.68 28.1538Z" fill="black"/>
<path d="M194.358 25.4682C191.82 25.8609 189.552 26.2144 187.234 26.5728C188.884 24.7514 191.982 24.2015 194.358 25.4682Z" fill="black"/>
<path d="M202.296 120.992C203.101 119.141 203.999 117.069 204.849 115.13C206.165 116.426 205.124 119.062 202.296 120.992Z" fill="black"/>
<path d="M124.525 121.522C122.935 121.615 121.344 121.782 119.753 121.787C97.8031 121.85 75.8529 121.9 53.9028 121.924C45.002 121.934 36.1012 121.885 27.2052 121.855C26.5376 121.855 25.865 121.895 25.2022 121.821C20.2338 121.242 16.8316 120.667 16.9151 113.254C17.1458 92.055 16.8512 70.8413 16.7481 49.6325C16.7334 46.3775 18.5204 44.3598 21.6379 44.3548C47.226 44.3254 72.8042 44.3107 98.3922 44.291H102.079C102.094 44.5267 102.109 44.7623 102.123 44.9931C101.171 45.0863 100.219 45.2582 99.2612 45.2582C73.6044 45.2729 47.9427 45.2631 22.286 45.2631C19.1685 45.2631 17.4551 47.2416 17.7497 50.3444C17.9755 52.7009 18.1719 55.0673 18.1719 57.4238C18.1571 75.1469 18.0884 92.8749 18.054 110.598C18.054 112.149 18.113 113.715 18.2799 115.257C18.653 118.738 21.6036 120.977 25.0598 120.687C27.3427 120.495 29.6551 120.535 31.9527 120.535C61.3946 120.545 90.8366 120.559 120.279 120.589C121.668 120.589 123.052 120.721 124.442 120.8C124.461 121.045 124.491 121.286 124.525 121.522Z" fill="black"/>
<path d="M158.259 112.297C158.254 114.3 157.851 116.48 156.997 118.276C154.999 122.464 152.112 123.431 146.795 121.742C148.067 121.492 148.729 121.207 149.363 121.261C153.766 121.639 156.84 118.993 156.904 114.56C157.002 107.888 157.021 101.211 157.061 94.5343C157.144 80.4393 157.203 66.3492 157.316 52.2541C157.345 48.2677 153.433 44.2419 149.598 44.3843C141.301 44.6887 132.985 44.5021 124.678 44.5021C123.843 44.5021 123.004 44.4039 122.169 44.3499C122.15 44.1437 122.135 43.9424 122.115 43.7362C122.842 43.6135 123.564 43.3877 124.29 43.3778C132.818 43.2944 141.35 43.152 149.878 43.2109C155.151 43.2453 158.239 46.2941 158.254 51.5423C158.337 71.7937 158.337 92.0403 158.259 112.297Z" fill="black"/>
<path d="M95.1601 43.3482H24.2432V43.0193H95.0865C95.111 43.1322 95.1405 43.2402 95.1601 43.3482Z" fill="black"/>
<path d="M19.5214 56.059H19.168V113.043H19.5214V56.059Z" fill="black"/>
<path d="M169.48 82.6977C169.583 80.0416 168.665 78.4314 166.637 77.7146C164.251 76.8751 162.356 77.3758 161.021 79.8649C160.152 81.4752 159.567 83.547 159.749 85.3193C159.886 86.6694 161.197 88.4908 162.425 88.967C163.642 89.4383 165.827 88.9621 166.833 88.0637C168.257 86.7872 168.993 84.74 170.015 83.0217C169.833 82.9186 169.656 82.8106 169.48 82.6977ZM164.546 87.882C162.611 87.8624 161.104 85.9035 161.133 83.4439C161.163 80.7486 162.503 78.7406 164.226 78.8094C166.661 78.9125 167.913 80.3902 167.889 83.1395C167.874 85.933 166.485 87.9017 164.546 87.882Z" fill="black"/>
<path d="M12.757 76.9588C12.487 76.4237 11.4315 76.0899 10.7245 76.0653C10.4545 76.0506 9.91447 77.1454 9.88501 77.7591C9.777 79.7376 9.77701 81.7357 9.8752 83.7142C9.99793 86.2475 11.3333 88.3144 12.6392 88.2408C14.0335 88.1671 15.0939 86.1248 15.0694 82.3052C14.6128 81.2104 13.8126 79.0208 12.757 76.9588ZM13.3413 86.6452C13.0811 86.7385 12.8209 86.8268 12.5557 86.9201C12.0746 85.8744 11.5886 84.8336 11.1026 83.7879C11.2989 83.6848 11.5002 83.5768 11.6966 83.4786C11.9421 83.9204 12.1875 84.3623 12.5361 84.9907C12.811 84.431 13.0074 84.0334 13.3363 83.3657V86.6452H13.3413Z" fill="black"/>
<path d="M100.645 46.7117C100.64 46.8 100.635 46.8884 100.63 46.9719H28.1914V46.7117H100.645Z" fill="black"/>
<path d="M93.2605 123.255C93.2507 123.363 93.2458 123.471 93.236 123.574H25.9766V123.255H93.2605Z" fill="black"/>
<path d="M82.1028 119.263H32.3799V119.631H82.1028V119.263Z" fill="black"/>
<path d="M147.782 45.8618V46.2791H122.12C122.11 46.1416 122.101 45.9993 122.096 45.8618H147.782Z" fill="black"/>
<path d="M169.373 89.3842V111.604C169.26 111.609 169.152 111.609 169.039 111.614V89.3695C169.152 89.3744 169.26 89.3793 169.373 89.3842Z" fill="black"/>
<path d="M156.028 55.1558V87.8773C155.935 87.8724 155.836 87.8724 155.743 87.8724V55.146C155.836 55.146 155.935 55.1509 156.028 55.1558Z" fill="black"/>
<path d="M160.526 54.2573V71.8037C160.379 71.8086 160.231 71.8086 160.089 71.8135V54.2328C160.231 54.2426 160.379 54.2524 160.526 54.2573Z" fill="black"/>
<path d="M123.671 119.195H110.45C110.46 119.028 110.47 118.871 110.475 118.708H123.666C123.666 118.871 123.666 119.028 123.671 119.195Z" fill="black"/>
<path d="M169.088 55.7644H168.94V75.3727H169.088V55.7644Z" fill="black"/>
<path d="M159.731 94.3528H159.471V112.832H159.731V94.3528Z" fill="black"/>
<path d="M15.5207 55.7842H15.3145V73.0065H15.5207V55.7842Z" fill="black"/>
<path d="M155.999 91.8491V101.069C155.837 101.069 155.684 101.069 155.522 101.074V91.8049C155.684 91.8246 155.842 91.8393 155.999 91.8491Z" fill="black"/>
<path d="M101.017 118.836C101.017 118.924 101.017 119.013 101.012 119.096H87.3887C87.3936 119.013 87.3936 118.924 87.3936 118.836H101.017Z" fill="black"/>
<path d="M157.66 44.1143C157.527 44.3156 157.39 44.5168 157.252 44.7132C155.323 43.859 153.393 42.9998 151.464 42.1456C151.567 41.9247 151.665 41.6988 151.768 41.4779C153.732 42.3616 155.696 43.2404 157.66 44.1143Z" fill="black"/>
<path d="M15.4812 119.224C15.5155 119.342 15.5548 119.464 15.599 119.582C15.2848 119.288 14.9559 118.988 14.6318 118.689C14.8479 118.473 15.059 118.262 15.275 118.046C15.2848 118.183 15.2995 118.321 15.3142 118.453C15.3241 118.537 15.3388 118.625 15.3584 118.708C15.3682 118.782 15.383 118.851 15.3977 118.92C15.3977 118.929 15.3977 118.939 15.4026 118.944C15.4272 119.037 15.4517 119.131 15.4812 119.224Z" fill="black"/>
<path d="M18.5355 122.287C18.4226 122.263 18.3145 122.228 18.2065 122.194C18.0151 122.125 17.8285 122.047 17.6469 121.954C17.529 121.89 17.4161 121.826 17.3032 121.747C17.2541 121.718 17.2001 121.684 17.151 121.644C17.1166 121.62 17.0774 121.595 17.043 121.571C16.8663 121.438 16.6993 121.286 16.5422 121.119C16.4882 121.065 16.4392 121.011 16.395 120.952C16.3557 120.913 16.3213 120.873 16.2919 120.829C16.2329 120.756 16.1789 120.687 16.1249 120.608C16.066 120.53 16.0071 120.441 15.958 120.353C15.9384 120.324 15.9187 120.284 15.8991 120.25C15.85 120.171 15.8058 120.083 15.7666 119.995C15.7322 119.921 15.6929 119.847 15.6684 119.774C15.6389 119.71 15.6095 119.646 15.5947 119.582C16.1299 120.073 16.6355 120.545 17.097 120.972C17.2639 121.124 17.4161 121.271 17.5683 121.409C17.6616 121.492 17.7549 121.576 17.8383 121.659C17.9267 121.742 18.0102 121.821 18.0936 121.89C18.2655 122.037 18.4128 122.17 18.5355 122.287Z" fill="black"/>
</svg>
