<svg width="146" height="268" viewBox="0 0 146 268" fill="none" xmlns="http://www.w3.org/2000/svg">
<path d="M123.146 10.3437C123.146 10.3437 135.424 47.5843 131.192 50.371C131.192 50.371 87.6584 49.4405 85.4889 45.3167C83.3195 41.1929 77.3395 7.04282 84.2499 2.60574C91.1603 -1.83134 81.5708 3.63903 123.146 10.3437Z" stroke="black" stroke-width="1.5" stroke-miterlimit="10"/>
<path d="M102.752 39.2619C94.9202 40.4869 87.9022 38.8364 81.7305 33.4829C83.3716 38.4249 97.9218 42.4038 102.752 39.2619Z" fill="black"/>
<path d="M23.8458 79.0038C20.6758 86.3677 24.996 92.0204 32.6873 91.249C34.3611 91.076 35.3289 91.5248 36.1518 92.7405C39.5837 97.7947 42.9594 102.886 46.4473 107.903C47.0131 108.717 48.009 109.769 48.8272 109.783C57.187 109.97 65.5469 109.965 73.9161 110.003C74.2481 110.003 74.58 109.872 75.445 109.699C70.1195 97.9303 64.579 86.5594 55.1345 76.6379C56.4062 76.2218 57.3507 75.6841 58.3139 75.6467C60.2869 75.5813 62.2927 75.6327 64.2377 75.9272C65.5329 76.1236 66.8467 76.666 67.9922 77.3346C82.5237 85.8908 97.4574 93.5446 113.911 97.7199C117.791 98.7017 121.808 99.1179 126.394 99.9034C125.585 97.8508 125.16 96.4669 124.515 95.1811C119.877 85.9422 115.084 76.7829 110.563 67.4879C107.145 60.4886 106.893 56.3321 108.852 50.0014C108.856 49.9967 108.856 49.9967 108.856 49.9921C108.912 49.9874 108.964 49.9827 109.02 49.978C109.039 49.9734 109.067 49.9734 109.085 49.9687L104.471 50.0482C105.149 50.1136 105.841 50.1744 106.542 50.2212C106.682 50.2305 106.818 50.2352 106.958 50.2492C106.121 54.9061 106.846 59.6938 102.741 63.3828C96.8589 68.6708 91.2997 74.3189 85.5862 79.7892C84.6745 80.6636 83.6552 81.421 82.6827 82.2299C82.8277 82.5384 82.9679 82.8517 83.1082 83.1603C84.1134 82.7862 85.3104 82.646 86.0912 82.0054C92.6276 76.6473 99.1546 71.2611 104.162 64.3319C104.391 64.0093 104.648 63.7054 105.116 63.1163C105.116 73.192 105.116 82.7582 105.149 92.3243C105.149 92.3898 105.593 92.4646 106.547 92.7405V64.2478C106.799 64.2431 107.056 64.2337 107.309 64.2291C112.84 75.2212 118.376 86.2181 124.3 97.9864C120.386 97.3084 117.169 96.9718 114.06 96.177C97.6117 91.9737 82.6219 84.4461 68.1839 75.7215C67.5013 75.3054 66.9823 74.3656 66.7345 73.5567C66.1033 71.5322 65.6685 69.447 65.0887 67.1092C69.0395 62.5926 73.341 57.8049 77.4929 52.8769C79.1199 50.9412 80.4665 48.7484 81.771 46.5696C82.0281 46.1348 81.7196 44.8817 81.3081 44.6433C80.7424 44.3206 79.681 44.3627 79.0966 44.6994C77.8014 45.4381 76.7494 46.6163 75.445 47.3177C74.6314 47.7572 73.528 47.6637 72.5602 47.8273C72.1581 47.8928 71.6157 47.874 71.3866 48.1218C68.787 50.8617 66.2389 53.6437 63.6907 56.435C63.6393 56.4864 63.7982 56.7295 64.0834 57.4542C67.001 54.4666 69.7642 51.6332 72.5274 48.7998C72.7098 48.9541 72.8968 49.1084 73.0838 49.272C72.7846 49.7957 72.5508 50.3801 72.1674 50.8243C68.614 54.9435 65.0092 59.0065 61.4885 63.1397C60.5254 64.2758 59.6978 64.5984 58.2016 63.9859C56.1444 63.1397 54.3583 63.7896 53.0819 65.7626C51.9785 67.4692 50.7208 69.0823 49.4771 70.8122C46.2603 68.0677 42.9828 65.1876 39.6024 62.4383C38.8029 61.7931 37.6153 61.1806 36.6568 61.2414C27.0205 61.9147 17.3983 62.7189 7.77135 63.523C6.95313 63.5885 6.15361 63.9251 4.81641 64.2852C11.465 69.4189 17.7209 74.2628 23.8458 79.0038ZM63.6673 62.8825C68.1324 57.7254 72.1908 53.0312 76.2492 48.3416C76.5905 48.4585 76.9271 48.5801 77.2684 48.697C77.1095 49.6461 77.2684 50.8664 76.7354 51.5023C73.2662 55.6495 69.652 59.6704 66.0752 63.7194C65.9209 63.8971 65.6591 63.9813 65.1308 64.3039C64.7053 63.8878 64.233 63.4342 63.6673 62.8825ZM53.5635 72.6216C51.1743 71.7941 50.8938 69.8023 53.1988 68.8812C55.8639 67.8152 58.9404 67.5674 61.8579 67.4411C63.7047 67.3617 65.776 70.4616 65.0934 72.4533C64.7147 73.5427 62.9146 74.1365 61.9467 74.8191C58.6879 73.9869 56.0602 73.4866 53.5635 72.6216ZM35.3289 88.5418C34.5949 84.086 31.869 81.047 27.9463 79.6396C25.2859 78.6811 23.3175 77.1896 21.307 75.4457C19.3667 73.7484 17.3375 72.1354 15.2709 70.5831C13.022 68.8906 10.6936 67.3102 8.27163 65.5897C8.73918 65.3418 8.95426 65.1361 9.18336 65.1127C18.3755 64.3273 27.5675 63.5137 36.7643 62.8311C37.6527 62.7703 38.8028 63.308 39.4995 63.9345C44.4181 68.3903 49.3882 72.7993 54.0825 77.4842C62.8257 86.2134 68.3756 96.9905 73.369 108.179C72.9903 108.319 72.7566 108.474 72.5321 108.474C64.8596 108.413 57.187 108.371 49.5192 108.188C48.7804 108.174 47.8453 107.417 47.3684 106.744C43.7916 101.689 40.2803 96.5837 36.7924 91.4687C36.1752 90.5663 35.5019 89.5751 35.3289 88.5418ZM25.0053 81.2386C26.6511 79.1159 28.2361 80.7103 29.3957 81.6781C30.948 82.9686 32.3693 84.577 33.3746 86.3209C34.4827 88.2473 33.3933 89.7013 30.976 90.2063C29.0637 89.3086 27.0065 88.6447 25.2812 87.4665C23.3362 86.148 23.3549 83.366 25.0053 81.2386Z" fill="black"/>
<path d="M80.1685 248.805C85.6436 228.154 90.9596 207.464 96.2851 186.775C99.7029 173.511 103.074 160.237 106.38 146.944C106.866 144.99 107.146 142.9 107.043 140.894C106.337 126.947 105.501 113.009 104.729 99.0621C104.682 98.2018 104.832 97.3321 104.888 96.4625C105.234 96.4391 105.58 96.4157 105.921 96.3877C106.132 97.8044 106.464 99.2164 106.539 100.638C107.216 113.206 107.324 125.829 108.642 138.332C110.087 152.026 112.575 165.618 114.735 179.233C118.424 202.466 122.216 225.685 125.951 248.908C126.657 253.303 127.307 257.708 128.004 262.238C129.388 262.06 130.51 261.714 131.595 261.808C135.765 262.168 139.945 262.551 144.074 263.215C144.826 263.337 145.364 264.8 146 265.642C145.149 266.077 144.303 266.876 143.452 266.886C139.576 266.918 135.681 266.946 131.828 266.568C127.443 266.138 126.807 265.174 126.171 260.915C125.166 254.182 123.978 247.477 122.94 240.754C119.036 215.459 115.165 190.16 111.279 164.861C110.386 159.059 109.498 153.251 108.605 147.449C108.371 147.44 108.138 147.426 107.904 147.416C106.632 152.115 105.262 156.786 104.112 161.513C98.0244 186.452 92.1753 211.453 85.8493 236.336C83.3479 246.164 79.8646 255.748 76.6853 265.399C76.4234 266.184 75.0114 267.129 74.1651 267.101C70.046 266.965 65.9222 266.661 61.8404 266.091C60.8399 265.95 60.0123 264.585 59.1006 263.781C60.1339 263.183 61.1531 262.088 62.1958 262.065C66.4739 261.972 70.7567 262.21 75.5678 262.336C77.0312 258.086 78.9155 253.528 80.1685 248.805ZM128.86 263.935C133.862 265.787 139.015 265.581 144.209 264.959C139.234 262.434 134.059 263.014 128.86 263.935ZM61.5178 264.118C65.8707 265.408 70.2424 266.025 74.6654 264.609C70.3031 263.126 65.9315 262.477 61.5178 264.118Z" fill="black"/>
<path d="M66.4219 89.3461C68.9607 92.806 73.7952 91.6137 80.4064 85.5309C79.4853 85.6197 78.2276 85.3579 77.6946 85.8629C74.5152 88.8739 71.0273 90.6319 66.4219 89.3461Z" fill="black"/>
<path d="M124.829 104.378C130.384 103.863 132.034 101.671 129.64 97.9255C130.323 101.671 127.003 102.405 124.829 104.378Z" fill="black"/>
<path d="M2.33472 67.0954C1.65209 64.6408 0.0156538 62.4947 2.97526 60.8536C2.74616 60.6479 2.52176 60.4468 2.29266 60.2411C1.59133 60.7835 0.525288 61.1902 0.258782 61.9009C-0.475276 63.8553 0.394374 65.4496 2.33472 67.0954Z" fill="black"/>
<path d="M97.167 21.6445C98.205 23.3464 99.0045 25.0202 100.159 26.3995C100.604 26.9325 102.044 27.199 102.661 26.8811C103.236 26.5818 103.708 25.24 103.53 24.534C103.147 22.991 102.488 21.4528 101.604 20.1343C101.127 19.4236 99.7292 18.6054 99.1635 18.8438C98.3733 19.1758 97.9618 20.4335 97.167 21.6445Z" fill="black"/>
<path d="M89.3369 24.1462C90.4263 25.8013 91.2305 27.5967 92.5443 28.8731C93.8114 30.1121 95.4104 29.2191 95.1112 27.4424C94.84 25.806 94.0966 24.1882 93.2597 22.7341C92.8903 22.0936 91.684 21.439 91.0435 21.584C90.4497 21.7242 90.099 22.9212 89.3369 24.1462Z" fill="black"/>
<path d="M86.0033 18.5958C87.0553 16.6321 87.9483 14.9676 89.0283 12.9572C86.2137 13.5603 85.3487 15.2061 86.0033 18.5958Z" fill="black"/>
<path d="M98.1309 10.9564C100.469 11.8588 102.802 12.7565 105.13 13.6542C105.247 13.369 105.369 13.0791 105.481 12.7892C103.152 11.8354 100.819 10.8816 98.4956 9.9325C98.374 10.2738 98.2524 10.6151 98.1309 10.9564Z" fill="black"/>
</svg>
