<svg width="242" height="245" viewBox="0 0 242 245" fill="none" xmlns="http://www.w3.org/2000/svg">
<path d="M145.564 12.725C145.564 12.725 160.972 59.4628 155.663 62.9593C155.663 62.9593 101.025 61.7923 98.3051 56.6172C95.5852 51.4375 88.076 8.58214 96.7521 3.01651C105.424 -2.55362 93.3858 4.30917 145.564 12.725Z" stroke="black" stroke-width="1.5" stroke-miterlimit="10"/>
<path d="M89.7055 222.056C87.6363 223.609 85.5672 225.166 83.498 226.719C83.3634 226.553 83.2242 226.387 83.0896 226.221C85.8903 223.425 88.6866 220.628 91.4874 217.832C92.2863 217.289 93.1571 216.827 93.8663 216.189C101.613 209.214 109.046 201.844 117.193 195.377C121.358 192.069 122.462 189.102 121.362 184.016C118.772 172.028 116.82 159.9 114.612 147.831C114.342 147.754 114.073 147.678 113.799 147.602C113.692 147.88 113.602 148.172 113.467 148.437C108.355 158.316 103.166 168.159 98.1572 178.087C96.2586 181.853 93.781 185.708 93.2873 189.73C92.1472 199.048 92.0574 208.496 91.5413 217.89C91.1777 218.007 90.8141 218.124 90.1902 218.321C90.6077 212.204 91.4695 206.167 91.3258 200.157C91.1104 191.315 93.6419 183.518 97.9507 175.919C102.942 167.113 107.349 157.975 112.004 148.975C112.323 148.36 112.578 147.719 113.09 146.587C75.6702 146.587 38.6408 146.587 1.29267 146.587C1.53953 148.212 1.77741 149.77 2.0916 151.816C37.1955 151.816 72.1693 151.816 107.139 151.816C107.139 152.108 107.139 152.395 107.139 152.687C74.8219 152.687 42.5053 152.687 9.7668 152.687C9.7668 160.201 9.77129 167.369 9.7668 174.532C9.75333 196.449 9.73988 218.366 9.72193 240.288C9.71744 244.982 9.60522 245.077 4.61858 244.57C4.61858 214.47 4.61858 184.335 4.61858 154.2C4.78466 154.2 4.95073 154.195 5.12128 154.195C5.12128 183.873 5.12128 213.55 5.12128 243.398C6.36458 243.398 7.22636 243.398 8.36642 243.398C8.36642 213.214 8.36642 183.132 8.36642 153.176C5.98755 152.719 3.08355 152.93 1.41386 151.592C0.14364 150.573 0.444353 147.597 0 145.236C14.2732 145.236 27.8416 145.236 41.4056 145.236C41.4101 145.138 41.4191 145.039 41.4236 144.94C38.1381 144.702 34.8526 144.285 31.5715 144.298C29.5248 144.307 28.286 143.576 27.5409 141.816C26.2348 138.742 24.8524 135.69 23.7078 132.557C21.0686 125.321 18.4743 118.068 16.0102 110.774C14.8028 107.193 15.5344 106.349 19.197 106.299C32.5904 106.129 45.9793 106.003 59.3683 105.725C61.7068 105.676 62.7436 106.546 63.5335 108.647C67.3083 118.696 71.3793 128.643 75.0104 138.742C76.1146 141.807 77.5868 142.687 80.7107 142.467C85.2171 142.148 89.7683 142.386 94.3465 142.75C88.2243 143.06 82.0976 143.369 75.6702 143.697C71.0876 131.699 66.5363 119.787 61.9895 107.879C61.5362 108.045 61.0874 108.211 60.634 108.378C65.0461 120.124 69.4583 131.865 73.8749 143.612C73.7043 143.697 73.5337 143.787 73.3587 143.872C72.5059 142.153 71.505 140.488 70.8227 138.701C67.2814 129.428 63.7894 120.137 60.3558 110.824C59.8575 109.477 59.4895 108.647 57.7076 108.683C44.8258 108.939 31.9396 109.046 19.0533 109.203C18.5596 109.208 18.0659 109.248 17.1368 109.298C18.3711 112.731 19.5246 115.918 20.6557 119.109C23.1961 126.273 25.7545 133.432 28.2322 140.618C28.883 142.512 29.9557 143.315 32.0204 143.32C40.8401 143.333 49.6599 143.486 58.4751 143.58C60.4859 143.603 62.5012 143.585 64.5345 143.935C61.7965 144.249 59.0631 144.568 56.3611 144.877C75.4997 144.877 94.6473 144.877 113.795 144.877C113.835 144.545 113.876 144.213 113.912 143.881C112.175 143.558 110.438 143.23 108.696 142.907C108.656 142.727 108.615 142.552 108.575 142.373C109.217 142.261 109.944 141.893 110.491 142.072C113.701 143.109 115.016 141.928 115.496 138.665C117.547 124.733 119.773 110.833 121.937 96.9186C122.112 95.7875 122.296 94.6565 122.969 93.6062C121.905 109.913 119.706 126.048 115.9 142.579C123.44 142.579 130.851 142.579 138.266 142.579C138.27 142.947 138.279 143.311 138.284 143.679C130.81 143.679 123.337 143.679 115.864 143.679C115.864 144.123 115.864 144.572 115.864 145.017C157.651 145.479 199.447 145.142 241.598 145.385C241.279 147.62 241.163 149.626 240.624 151.511C240.449 152.126 239.197 152.732 238.389 152.808C236.405 152.992 234.39 152.871 232.177 152.871C232.177 182.787 232.177 212.37 232.177 241.93C235.22 242.429 235.238 242.429 235.26 239.107C235.435 212.424 235.601 185.735 235.768 159.052C235.777 157.849 235.768 156.65 236.275 155.434C236.329 156.26 236.427 157.081 236.432 157.907C236.544 184.492 236.647 211.077 236.75 237.662C236.75 238.169 236.742 238.676 236.724 239.183C236.584 243.569 236.05 244 231.032 243.47C231.032 213.424 231.032 183.348 231.032 152.835C193.186 152.835 155.627 152.835 118.068 152.835C118.045 152.535 118.023 152.229 117.996 151.929C118.898 151.848 119.8 151.695 120.703 151.695C159.065 151.628 197.423 151.579 235.786 151.525C240.139 151.52 240.507 151.089 239.946 146.435C198.635 146.435 157.301 146.435 115.402 146.435C116.497 151.516 117.632 156.215 118.508 160.964C120.213 170.228 121.869 179.505 123.288 188.819C123.476 190.053 122.52 191.898 121.51 192.818C111.106 202.325 100.581 211.696 90.105 221.122C89.8357 221.364 89.7504 221.813 89.5798 222.163L89.7055 222.056ZM18.2858 107.17C18.2903 107.336 18.2948 107.502 18.2993 107.673C32.1326 107.673 45.9659 107.673 59.7992 107.673C59.7902 107.507 59.7857 107.341 59.7767 107.17C45.9479 107.17 32.1146 107.17 18.2858 107.17Z" fill="black"/>
<path d="M152 91.9861C145.295 87.2508 138.782 82.1834 131.771 77.9508C126.587 74.8224 124.477 71.088 125.465 65.1229C125.752 63.4128 125.941 62.3356 127.166 61.6399C125.819 61.9586 124.172 62.2368 123.934 62.2727L123.903 62.2772C124.037 62.2952 124.177 62.2997 124.311 62.3132C124.311 64.0412 124.141 65.6705 124.343 67.2459C124.854 71.2227 123.081 73.431 119.634 75.361C109.648 80.958 99.8673 86.9321 90.0422 92.7985C88.9605 93.4448 88.0494 94.3919 87.0664 95.1998C87.2145 95.4377 87.3536 95.6666 87.4928 95.9C96.8287 94.8632 106.156 93.8308 115.492 92.794C107.174 91.6988 99.037 94.0238 90.7379 93.7321C101.645 87.2328 112.552 80.7381 123.957 73.9471C123.548 79.7327 123.194 84.7911 122.844 89.8541C123.189 89.872 123.53 89.89 123.871 89.9079C124.338 85.047 124.805 80.195 125.317 74.8493C133.903 80.9805 142.076 86.8154 150.946 93.1486C147.512 92.9062 144.958 92.7222 142.413 92.5382C142.391 92.8838 142.364 93.2383 142.341 93.5839C146.219 94.0059 150.097 94.4188 153.98 94.8317C154.105 94.5535 154.231 94.2662 154.352 93.9789C153.562 93.3146 152.835 92.5741 152 91.9861Z" fill="black"/>
<path d="M230.755 132.292C231.688 132.709 232.393 133.024 233.098 133.338C229.435 132.947 227.725 134.298 228.721 138.401C228.344 138.288 227.967 138.176 227.59 138.064C227.667 136.601 227.743 135.133 227.842 133.248C219.143 133.248 210.27 133.243 201.392 133.252C199.161 133.252 196.93 133.311 194.699 133.324C192.63 133.338 191.84 134.455 191.849 136.417C191.858 138.589 193.187 138.692 194.906 138.737C207.271 139.083 219.637 139.509 231.998 139.945C232.613 139.967 233.214 140.295 233.717 141.053C221.015 141.053 208.308 141.053 195.606 141.053C195.601 140.892 195.601 140.735 195.597 140.573C200.234 140.573 204.866 140.573 209.502 140.573C200.341 138.665 193.51 139.375 191.732 142.166C191.396 140.555 190.727 138.912 190.817 137.314C190.898 135.833 191.382 133.594 192.388 133.091C195.768 131.412 196.504 129.509 193.698 126.313C195.004 126.183 195.875 125.99 196.728 126.031C207.159 126.52 217.59 126.982 228.017 127.588C231.774 127.812 232.083 128.508 230.755 132.292ZM196.719 129.078C197.626 128.8 198.537 128.27 199.439 128.284C206.212 128.378 212.985 128.602 219.758 128.737C222.788 128.795 225.822 128.746 228.852 128.746C228.852 128.661 228.852 128.571 228.852 128.486C217.927 127.938 207.002 127.391 195.53 126.816C196.216 128.037 196.499 128.535 196.782 129.038C196.486 129.976 196.189 130.91 195.862 131.951C199.304 131.951 202.603 131.888 205.898 131.964C212.864 132.121 219.83 132.346 226.796 132.548C228.627 132.602 230.252 132.413 230.122 129.083C218.928 129.083 207.819 129.083 196.719 129.078Z" fill="black"/>
<path d="M163.944 127.74C160.281 127.74 157.171 127.74 153.984 127.74C153.984 132.781 153.984 137.741 153.984 142.696C153.773 142.727 153.567 142.759 153.356 142.79C153.212 141.785 152.961 140.779 152.938 139.769C152.759 132.072 152.669 124.374 152.444 116.676C152.395 115.052 151.91 113.44 151.623 111.82C151.856 111.676 152.094 111.533 152.328 111.385C152.956 111.977 153.953 112.471 154.15 113.184C155.012 116.304 156.152 114.697 157.736 113.095C158.037 116.717 158.167 119.998 158.656 123.225C158.827 124.347 159.671 125.949 160.573 126.264C162.611 126.964 162.575 125.106 162.853 123.696C163.814 118.831 164.823 113.97 165.919 109.136C166.085 108.391 166.812 107.776 167.279 107.098C167.647 107.664 168.019 108.22 168.378 108.79C170.326 111.914 170.326 111.914 168.63 115.352C168.719 113.535 168.782 112.3 168.881 110.303C164.007 121.129 165.295 132.13 164.137 142.75C163.773 142.741 163.41 142.732 163.046 142.718C163.163 140.366 163.262 138.014 163.401 135.662C163.549 133.171 163.742 130.667 163.944 127.74Z" fill="black"/>
<path d="M89.5979 222.163C89.9839 222.41 90.729 222.711 90.7021 222.899C89.8134 228.995 88.9022 235.09 87.8385 241.158C87.6948 241.966 86.7927 243.156 86.1374 243.228C85.3609 243.313 84.0099 242.581 83.7002 241.863C81.9183 237.734 80.3338 233.51 78.7764 229.286C78.5564 228.685 78.6866 227.819 78.9559 227.204C79.288 226.445 79.9344 225.821 80.4416 225.139C81.034 225.619 81.8913 225.983 82.1786 226.602C83.6149 229.717 84.9075 232.9 86.2361 236.064C86.465 236.616 86.6221 237.2 87.3851 237.841C88.1571 232.581 88.9336 227.316 89.7056 222.056L89.5979 222.163ZM81.2674 226.665C80.8365 226.809 80.4056 226.953 79.9748 227.096C80.0241 232.603 81.9856 237.379 85.5045 241.549C85.8366 241.428 86.1643 241.302 86.4964 241.181C84.7504 236.342 83.0089 231.504 81.2674 226.665Z" fill="black"/>
<path d="M121.565 167.351C157.118 167.351 192.675 167.351 228.232 167.351C228.232 167.494 228.232 167.638 228.232 167.786C192.648 167.786 157.069 167.786 121.484 167.786C121.511 167.643 121.538 167.494 121.565 167.351Z" fill="black"/>
<path d="M11.9495 167.387C41.4788 167.387 71.0081 167.387 100.537 167.387C100.537 167.531 100.537 167.674 100.537 167.818C70.9857 167.818 41.4385 167.818 11.8867 167.818C11.9092 167.674 11.9271 167.531 11.9495 167.387Z" fill="black"/>
<path d="M132.349 91.5371C133.134 88.7992 135.598 89.7642 136.747 90.2983C141.182 92.3674 144.387 95.8415 145.993 100.554C146.195 101.142 145.85 102.273 145.365 102.641C144.889 103.009 143.682 103.041 143.211 102.677C142.039 101.78 140.966 100.671 140.1 99.4681C138.404 97.1207 136.877 94.652 135.28 92.2328C134.301 92.0039 133.323 91.7705 132.349 91.5371ZM143.884 102.237C144.288 101.941 144.687 101.649 145.091 101.353C143.74 97.6458 141.599 94.5488 138.179 92.4348C137.959 92.6008 137.735 92.7624 137.515 92.9285C139.633 96.03 141.761 99.1315 143.884 102.237Z" fill="black"/>
<path d="M132.35 91.537C133.328 91.7704 134.302 92.0038 135.281 92.2372C134.186 92.4302 133.073 92.8521 131.995 92.7758C125.429 92.3225 118.88 91.6537 112.309 91.2811C109.827 91.1375 107.314 91.5864 104.603 91.142C106.182 90.7515 107.78 89.9616 109.333 90.0379C117.013 90.4149 124.679 91.0163 132.35 91.537Z" fill="black"/>
<path d="M196.229 142.952C206.897 142.952 217.562 142.952 228.231 142.952C228.222 143.333 228.217 143.719 228.208 144.101C217.526 144.33 206.853 144.348 196.229 142.952Z" fill="black"/>
<path d="M49.3098 125.034C45.2433 125.034 41.1768 125.034 37.1103 125.034C37.0654 125.353 37.0161 125.667 36.9712 125.986C41.2217 127.292 45.8807 126.461 50.203 127.39C50.1806 127.664 50.1626 127.934 50.1402 128.207C45.8897 127.965 41.6212 127.866 37.4021 127.35C36.5717 127.247 35.9433 125.532 35.2207 124.563C35.3554 124.302 35.49 124.042 35.6246 123.782C40.1939 123.984 44.7631 124.186 49.3368 124.388C49.3233 124.599 49.3188 124.814 49.3098 125.034Z" fill="black"/>
<path d="M197.576 134.882C206.198 134.882 214.821 134.882 223.438 134.882C223.443 135.007 223.447 135.138 223.456 135.263C214.839 135.263 206.221 135.263 197.603 135.263C197.594 135.138 197.585 135.007 197.576 134.882Z" fill="black"/>
<path d="M159.599 124.477C160.258 119.096 160.918 113.714 161.578 108.337C161.874 108.252 162.175 108.167 162.471 108.081C162.736 109.176 163.355 110.321 163.203 111.358C162.79 114.154 161.995 116.897 161.466 119.679C161.156 121.304 161.057 122.969 160.864 124.617C160.442 124.567 160.021 124.522 159.599 124.477Z" fill="black"/>
<path d="M219.144 137.674C212.779 137.674 206.414 137.674 200.05 137.674C200.054 137.53 200.063 137.386 200.068 137.243C206.432 137.243 212.797 137.243 219.157 137.243C219.153 137.386 219.148 137.53 219.144 137.674Z" fill="black"/>
<path d="M100.115 95.873C99.6168 97.2868 99.1141 98.7007 98.6159 100.11C98.9525 100.348 99.2846 100.586 99.6213 100.824C101.628 98.8263 103.629 96.8245 105.636 94.8271C105.802 94.9887 105.972 95.1458 106.138 95.3074C104.536 97.1432 103.068 99.127 101.269 100.738C100.555 101.376 99.1096 101.196 97.9965 101.385C97.9561 100.334 97.6778 99.2168 97.9471 98.2518C98.2254 97.2688 99.0423 96.4385 99.6213 95.5408C99.7829 95.653 99.9489 95.7607 100.115 95.873Z" fill="black"/>
<path d="M81.5673 240.072C76.859 238.263 74.884 233.398 77.5322 231.351C78.0843 232.339 78.6364 233.335 79.1929 234.327C77.0699 235.202 78.7127 236.194 79.2648 237.052C79.947 238.111 80.7908 239.067 81.5673 240.072Z" fill="black"/>
<path d="M171.499 142.705C171.89 141.085 176.67 140.533 183.42 141.857C179.448 142.139 175.471 142.422 171.499 142.705Z" fill="black"/>
<path d="M187.782 138.028C184.492 138.271 181.206 138.509 177.688 138.769C177.876 138.549 178.37 137.445 178.931 137.409C181.826 137.229 184.739 137.328 187.643 137.328C187.688 137.562 187.733 137.795 187.782 138.028Z" fill="black"/>
<path d="M6.97949 143.248C7.03335 140.73 8.2273 140.317 13.5416 141.628C11.257 142.189 9.06212 142.732 6.97949 143.248Z" fill="black"/>
<path d="M106.747 45.5532C119.193 47.5012 130.356 44.8755 140.172 36.361C137.556 44.2202 114.427 50.5488 106.747 45.5532Z" fill="black"/>
<path d="M116.039 23.0752C116.851 25.4675 117.717 27.3706 118.041 29.3635C118.139 29.9829 116.887 31.1813 116.034 31.4596C115.568 31.6122 114.203 30.508 114.023 29.7809C113.507 27.6624 112.767 25.3014 116.039 23.0752Z" fill="black"/>
<path d="M122.01 25.602C123.19 24.2151 124.012 23.2546 124.833 22.2941C125.758 23.6945 127.153 25.0096 127.423 26.5221C127.58 27.4198 125.946 28.6272 125.12 29.7C124.182 28.4612 123.244 27.2223 122.01 25.602Z" fill="black"/>
<path d="M123.226 17.3344C126.112 18.048 129.002 18.7662 131.888 19.4798C131.79 19.8972 131.691 20.3192 131.592 20.7366C128.706 20.005 125.825 19.2733 122.938 18.5417C123.037 18.1378 123.131 17.7338 123.226 17.3344Z" fill="black"/>
<path d="M226.975 131.399C217.792 131.399 208.604 131.399 199.42 131.399C199.42 131.255 199.416 131.116 199.416 130.972C208.604 130.972 217.796 130.972 226.984 130.972C226.984 131.116 226.979 131.255 226.975 131.399Z" fill="black"/>
</svg>
